<svg width="640" height="420" viewBox="0 0 640 420" fill="none" xmlns="http://www.w3.org/2000/svg">
  <rect width="640" height="420" rx="24" fill="#F8FAFC"/>
  <rect x="24" y="24" width="592" height="372" rx="20" fill="#FFFFFF" stroke="#E2E8F0" stroke-width="2"/>
  <rect x="48" y="48" width="544" height="92" rx="18" fill="#0EA5E9"/>
  <rect x="72" y="72" width="220" height="18" rx="9" fill="#F8FAFC"/>
  <rect x="72" y="100" width="140" height="10" rx="5" fill="#E0F2FE"/>
  <rect x="48" y="166" width="240" height="150" rx="16" fill="#EFF6FF"/>
  <rect x="72" y="194" width="120" height="12" rx="6" fill="#111827"/>
  <rect x="72" y="220" width="180" height="10" rx="5" fill="#64748B"/>
  <rect x="72" y="242" width="160" height="10" rx="5" fill="#94A3B8"/>
  <rect x="316" y="166" width="276" height="150" rx="16" fill="#EFF6FF"/>
  <rect x="340" y="194" width="120" height="12" rx="6" fill="#111827"/>
  <rect x="340" y="220" width="210" height="10" rx="5" fill="#64748B"/>
  <rect x="340" y="242" width="200" height="10" rx="5" fill="#94A3B8"/>
</svg>